<svg width="510" height="556" viewBox="0 0 510 556" fill="none" xmlns="http://www.w3.org/2000/svg">
<path d="M464.5 292C318 337 -9.34274 260.486 73 395.5C121.931 475.731 293 493 293 493V556.001C293 556.001 107.346 547.213 46.5 464.5C18.0307 425.799 6.9308 397.737 1.49997 350C-18.8776 170.884 511.613 346.946 427.5 187.5C383.062 103.263 317 66.5 296.5 76L356 42.0004C356 42.0004 611 247 464.5 292Z" fill="url(#paint0_linear_11_46)"/>
<path d="M293 66.0333L364 0V489.967L293 556V66.0333Z" fill="#FF6200"/>
<path d="M360 41.6666L339 89C339 89 283.367 55.2976 237.5 64C152.012 80.2197 115.061 170.51 115.5 261C116.204 406.11 432.622 454.667 432.622 454.667L441.122 468.667C441.122 468.667 114.693 434.413 94.5 282C80.8095 178.666 114.015 80.8155 210.622 41.6665C264.687 19.7571 306 28.5 360 41.6666Z" fill="url(#paint1_radial_11_46)"/>
<path d="M293 66.0333L364 0V256L293 322.033V66.0333Z" fill="#FF6200"/>
<path d="M481.5 467L444.5 476L427 445.5L481.5 467Z" fill="#CCCCCC"/>
<defs>
<linearGradient id="paint0_linear_11_46" x1="255.411" y1="42.0004" x2="255.411" y2="556.001" gradientUnits="userSpaceOnUse">
<stop stop-color="#D9D9D9"/>
<stop offset="1" stop-color="#8F8F8F"/>
</linearGradient>
<radialGradient id="paint1_radial_11_46" cx="0" cy="0" r="1" gradientUnits="userSpaceOnUse" gradientTransform="translate(163.5 279.5) rotate(-17.0378) scale(64.846 50.7176)">
<stop stop-color="#ACACAC"/>
<stop offset="1" stop-color="#CCCCCC"/>
</radialGradient>
</defs>
</svg>
