<svg width="236" height="456" viewBox="0 0 236 456" fill="none" xmlns="http://www.w3.org/2000/svg">
<path d="M122.881 429.017C122.855 437.301 129.58 444.142 137.792 443.051C161.675 439.875 184.025 428.975 201.308 411.801C222.159 391.081 233.924 362.926 234.017 333.531C234.109 304.136 222.521 275.908 201.801 255.058C184.627 237.775 162.345 226.734 138.483 223.409C130.278 222.265 123.51 229.064 123.484 237.348L123.344 281.782C123.318 290.067 130.286 296.533 137.867 299.875C141.984 301.691 145.769 304.271 149.002 307.525C155.807 314.372 159.613 323.643 159.583 333.297C159.553 342.951 155.688 352.198 148.841 359.003C145.587 362.236 141.786 364.792 137.657 366.582C130.056 369.876 123.047 376.299 123.021 384.583L122.881 429.017Z" fill="url(#paint0_linear_0_1)"/>
<path d="M123.881 207.017C123.855 215.301 130.58 222.142 138.792 221.051C162.675 217.875 185.025 206.975 202.308 189.801C223.159 169.081 234.924 140.926 235.017 111.531C235.109 82.1361 223.521 53.9083 202.801 33.0575C185.627 15.7751 163.345 4.73422 139.483 1.40869C131.278 0.265206 124.51 7.06421 124.484 15.3484L124.344 59.7823C124.318 68.0665 131.286 74.5335 138.867 77.8753C142.984 79.6907 146.769 82.2708 150.002 85.5246C156.807 92.3725 160.613 101.643 160.583 111.297C160.553 120.951 156.688 130.198 149.841 137.003C146.587 140.236 142.786 142.792 138.657 144.582C131.056 147.876 124.047 154.299 124.021 162.583L123.881 207.017Z" fill="url(#paint1_linear_0_1)"/>
<rect width="111" height="456" rx="22" fill="url(#paint2_linear_0_1)"/>
<rect width="136" height="456" rx="22" fill="url(#paint3_linear_0_1)"/>
<defs>
<linearGradient id="paint0_linear_0_1" x1="305" y1="333" x2="80" y2="376" gradientUnits="userSpaceOnUse">
<stop stop-color="#11A04A"/>
<stop offset="1" stop-color="#11A04A" stop-opacity="0"/>
</linearGradient>
<linearGradient id="paint1_linear_0_1" x1="306" y1="111" x2="81" y2="154" gradientUnits="userSpaceOnUse">
<stop stop-color="#11A04A"/>
<stop offset="1" stop-color="#11A04A" stop-opacity="0"/>
</linearGradient>
<linearGradient id="paint2_linear_0_1" x1="55.5" y1="-1.28883e-06" x2="-117.31" y2="450.743" gradientUnits="userSpaceOnUse">
<stop stop-color="#0DE965" stop-opacity="0.53"/>
<stop offset="1" stop-color="#11A04A" stop-opacity="0"/>
</linearGradient>
<linearGradient id="paint3_linear_0_1" x1="68" y1="9.72332e-07" x2="-189.345" y2="252.701" gradientUnits="userSpaceOnUse">
<stop stop-color="#11A04A" stop-opacity="0.54"/>
<stop offset="1" stop-color="#11A04A" stop-opacity="0"/>
</linearGradient>
</defs>
</svg>
