<svg width="748" height="748" viewBox="0 0 748 748" fill="none" xmlns="http://www.w3.org/2000/svg">
<rect x="0.647614" y="374" width="528" height="528" transform="rotate(-45 0.647614 374)" fill="black"/>
<circle cx="373.5" cy="374.5" r="311.5" fill="url(#paint0_linear_1_7)"/>
<path d="M308.435 128.272C301.406 121.243 290.009 121.243 282.979 128.272C275.95 135.302 275.95 146.698 282.979 153.728L308.435 128.272ZM593.276 456.569C603.217 456.569 611.276 448.51 611.276 438.569V276.569C611.276 266.628 603.217 258.569 593.276 258.569C583.335 258.569 575.276 266.628 575.276 276.569V420.569H431.276C421.335 420.569 413.276 428.628 413.276 438.569C413.276 448.51 421.335 456.569 431.276 456.569H593.276ZM282.979 153.728L580.548 451.297L606.004 425.841L308.435 128.272L282.979 153.728Z" fill="#636363" fill-opacity="0.79"/>
<path d="M430.841 609.004C437.87 616.033 449.267 616.033 456.297 609.004C463.326 601.974 463.326 590.577 456.297 583.548L430.841 609.004ZM146 280.707C136.059 280.707 128 288.766 128 298.707V460.707C128 470.648 136.059 478.707 146 478.707C155.941 478.707 164 470.648 164 460.707V316.707H308C317.941 316.707 326 308.648 326 298.707C326 288.766 317.941 280.707 308 280.707H146ZM456.297 583.548L158.728 285.979L133.272 311.435L430.841 609.004L456.297 583.548Z" fill="#636363" fill-opacity="0.79"/>
<defs>
<linearGradient id="paint0_linear_1_7" x1="364" y1="31" x2="391" y2="781" gradientUnits="userSpaceOnUse">
<stop stop-color="#3F3C3C"/>
<stop offset="1" stop-color="#3F3C3C" stop-opacity="0"/>
<stop offset="1" stop-color="#3F3C3C" stop-opacity="0.86"/>
</linearGradient>
</defs>
</svg>
