<svg width="1546" height="1546" viewBox="0 0 1546 1546" fill="none" xmlns="http://www.w3.org/2000/svg">
<path fill-rule="evenodd" clip-rule="evenodd" d="M914.13 395.639C913.31 418.867 913.289 441.11 914.074 462.373V662.672L761.4 701.173C765.155 716.061 769.523 731.908 774.071 748.408L774.071 748.408C791.582 811.934 811.764 885.151 809.888 950.682C808.776 989.55 799.648 1011.74 788.437 1024.03C778.857 1034.53 756.151 1050.5 696.904 1050.5C648.815 1050.5 629.238 1036.41 619.34 1025.1C606.864 1010.83 596.714 985.723 593.257 945.387C587.272 875.548 603.001 796.04 615.713 731.785L615.714 731.781C618.203 719.198 620.577 707.201 622.649 695.975L549.366 682.448C553.081 591.986 550.58 485.91 540.778 362.145L342.399 377.855C361.439 618.272 350.007 771.312 326.857 863.822C306.841 943.808 283.132 961.484 278.488 964.307C275.942 964.176 264.88 962.859 246.6 945.148C222.629 921.924 215 896.786 215 890.561H16C16 966.791 58.8342 1040.31 108.132 1088.07C157.156 1135.57 241.682 1184.22 337.084 1154.68C385.294 1139.75 423.645 1108.71 453.656 1066.46C463.597 1090.16 477.049 1113.04 495.144 1133.73C542.817 1188.23 611.971 1215.5 696.904 1215.5C786.449 1215.5 860.071 1190.32 910.32 1135.25C911.595 1133.85 912.846 1132.45 914.074 1131.03V1133H1094.07V782.644C1145.94 798.701 1198.28 793.039 1242.62 778.183C1291.69 761.744 1336.48 732.472 1371.96 697.926C1407.11 663.698 1437.77 619.725 1452.44 570.349C1467.55 519.487 1466.4 457.979 1427.85 403.981C1390.9 352.247 1330.7 323.173 1261.51 309.486C1191.73 295.681 1102.82 295.305 992.538 309.559L916.826 319.345L914.13 395.639ZM1114.27 570.872C1105.93 550.626 1098.68 521.338 1095.38 480.413C1152.94 477.061 1195.74 479.962 1226.58 486.064C1270.86 494.824 1280.98 508.047 1281.36 508.584C1281.41 508.657 1281.42 508.631 1281.42 508.632C1281.43 508.632 1281.43 508.634 1281.43 508.642C1281.43 508.662 1281.43 508.721 1281.45 508.878C1281.55 509.764 1281.69 513.026 1279.9 519.08C1276.04 532.049 1265.32 550.521 1246.38 568.961C1227.77 587.083 1205.75 600.703 1185.45 607.506C1165.13 614.311 1152.03 612.717 1144.83 609.812C1139.34 607.601 1126.48 600.496 1114.27 570.872ZM1454.32 749.707C1349.47 746.995 1268.04 771.178 1214.92 819.523C1160.06 869.442 1143.93 937.606 1157.64 999.788C1184.58 1122 1322.47 1216.07 1485.55 1157.75L1530.87 1141.54L1526.77 1093.58L1515.2 958.013V812.186V751.282L1454.32 749.707ZM1390.43 965.99L1397.61 1050.14C1330.16 1055.12 1288.2 1011.4 1279.71 972.877C1274.81 950.643 1280.05 929.26 1299.05 911.972C1314.22 898.167 1342.33 883.387 1390.2 877.331V960.675V963.338L1390.43 965.99Z" fill="url(#paint0_linear_29_9)"/>
<defs>
<linearGradient id="paint0_linear_29_9" x1="1131" y1="218.5" x2="724" y2="1283.5" gradientUnits="userSpaceOnUse">
<stop stop-color="#757F9A"/>
<stop offset="1" stop-color="#D7DDE8"/>
</linearGradient>
</defs>
</svg>
