<svg width="256" height="256" viewBox="0 0 256 256" fill="none" xmlns="http://www.w3.org/2000/svg">
<mask id="path-1-inside-1_1_8" fill="white">
<path d="M256 128C256 111.191 252.689 94.5462 246.257 79.0165C239.824 63.4868 230.396 49.3762 218.51 37.4903C206.624 25.6044 192.513 16.176 176.983 9.74341C161.454 3.31081 144.809 -2.73856e-06 128 0L128 128H256Z"/>
</mask>
<path d="M256 128C256 111.191 252.689 94.5462 246.257 79.0165C239.824 63.4868 230.396 49.3762 218.51 37.4903C206.624 25.6044 192.513 16.176 176.983 9.74341C161.454 3.31081 144.809 -2.73856e-06 128 0L128 128H256Z" fill="url(#paint0_linear_1_8)" stroke="black" stroke-width="18" mask="url(#path-1-inside-1_1_8)"/>
<path d="M13.9009 175.261C8.26906 161.665 5.11734 147.183 4.58201 132.5L123.5 132.5L123.5 251.418C108.817 250.883 94.335 247.731 80.7386 242.099C65.7549 235.893 52.1403 226.796 40.6723 215.328C29.2043 203.86 20.1073 190.245 13.9009 175.261Z" fill="url(#paint1_linear_1_8)" stroke="black" stroke-width="9"/>
<circle cx="71" cy="70" r="25.5" fill="url(#paint2_linear_1_8)" stroke="black" stroke-width="9"/>
<circle cx="185" cy="185" r="25.5" fill="url(#paint3_linear_1_8)" stroke="black" stroke-width="9"/>
<defs>
<linearGradient id="paint0_linear_1_8" x1="128" y1="0" x2="128" y2="256" gradientUnits="userSpaceOnUse">
<stop stop-color="#7F1D1D"/>
<stop offset="1" stop-color="#4F46E5" stop-opacity="0.6"/>
</linearGradient>
<linearGradient id="paint1_linear_1_8" x1="128" y1="0" x2="128" y2="256" gradientUnits="userSpaceOnUse">
<stop stop-color="#7F1D1D" stop-opacity="0.6"/>
<stop offset="1" stop-color="#4F46E5"/>
</linearGradient>
<linearGradient id="paint2_linear_1_8" x1="93" y1="57" x2="46" y2="88" gradientUnits="userSpaceOnUse">
<stop stop-color="#7F1D1D"/>
<stop offset="1" stop-color="#4F46E5"/>
</linearGradient>
<linearGradient id="paint3_linear_1_8" x1="200" y1="162" x2="164" y2="204" gradientUnits="userSpaceOnUse">
<stop stop-color="#7F1D1D"/>
<stop offset="1" stop-color="#4F46E5"/>
</linearGradient>
</defs>
</svg>
