<svg width="439" height="269" viewBox="0 0 439 269" fill="none" xmlns="http://www.w3.org/2000/svg">
<path d="M19.1516 257L3.65161 247L36.1516 223L56.6516 206.5L74.1516 190.5L89.1516 184.5L114.152 176L141.152 173.5L169.152 181.5L184.652 189L200.652 186L211.652 181.5L220.152 171L227.652 150.5L234.152 121.5L241.652 92.5L253.152 69L271.152 55H289.152L312.152 58.5L329.152 61.5L344.652 74V89L338.652 96.5L300.652 95L289.152 108.5L278.152 128.5L271.152 156.5L259.152 189L246.652 216.5L235.152 232.5L227.652 239.5V249L232.152 256.5L239.152 259.5V266.5H228.652L220.152 258.5L216.152 249V244L190.652 242.5L169.152 238L144.152 232.5V239.5L138.152 254.5L126.652 266.5H119.152L117.652 260.5L130.152 247L135.152 231.5L114.152 232.5L87.1516 236L72.1516 242.5L39.6516 257H19.1516Z" stroke="black" stroke-width="4"/>
<path d="M109.152 193L136.652 192L149.652 196L136.152 193.5L113.152 195L98.6516 200.5L109.152 193Z" fill="black"/>
<path d="M141.107 180.595L167.232 189.238L178.025 197.516L166.241 190.47L144.159 183.863L128.652 183.968L141.107 180.595Z" fill="black"/>
<path d="M222.55 187.398L232.152 173.5L235.152 163.5L236.652 150.5L233.652 163L230.152 173L222.152 184.5L210.652 192.389L222.55 187.398Z" fill="black"/>
<path d="M194.778 204.629L211.262 200.939L220.252 195.631L230.177 187.102L219.49 194.246L210.132 199.214L196.452 202.231L182.652 200.219L194.778 204.629Z" fill="black"/>
<path d="M256.402 79.7909L248.667 94.8017L246.632 104.964L245.453 117.096L248.022 105.203L250.508 94.9589L256.959 82.5288L263.322 71.4995L256.402 79.7909Z" fill="black"/>
<path d="M80.9901 195.707L107.017 186.772L120.619 186.828L106.974 188.352L85.3983 196.46L73.1176 205.93L80.9901 195.707Z" fill="black"/>
<path d="M26.4462 241.235L47.6219 223.976L54.9552 221.432L47.7684 225.971L27.8343 242.533L12.3514 247.284L26.4462 241.235Z" fill="black"/>
<path d="M5.2278 238.24L4.77699 243.226C4.62215 244.938 6.55705 246.035 7.94661 245.022L12.3067 241.846C13.5397 240.947 13.3533 239.055 11.9687 238.414L8.05947 236.605C6.80415 236.024 5.35237 236.863 5.2278 238.24Z" fill="black" stroke="black"/>
<path d="M32.3581 226.159L27.2238 230.126C25.9372 231.12 24.0649 230.245 24.0024 228.62L23.769 222.553C23.7136 221.112 25.154 220.088 26.4963 220.613L31.864 222.714C33.3113 223.28 33.5879 225.208 32.3581 226.159Z" fill="black" stroke="black"/>
<path d="M52.1317 211.447L46.8745 215.51C45.5599 216.525 43.6516 215.588 43.6516 213.927V207.236C43.6516 205.749 45.2162 204.782 46.546 205.447L51.8032 208.076C53.1218 208.735 53.2982 210.546 52.1317 211.447Z" fill="black" stroke="black"/>
<path d="M71.7145 193.708L67.7052 197.01C66.4342 198.057 64.5135 197.206 64.4358 195.561L64.1134 188.736C64.0318 187.009 66.0316 185.999 67.3729 187.09L71.7047 190.612C72.685 191.409 72.6897 192.905 71.7145 193.708Z" fill="black" stroke="black"/>
<path d="M111.816 177.536L105.622 179.357C104.128 179.796 102.727 178.435 103.124 176.929L105.347 168.495C105.798 166.784 108.084 166.458 108.995 167.975L112.967 174.588C113.641 175.71 113.072 177.167 111.816 177.536Z" fill="black" stroke="black"/>
<path d="M137.191 174.069L130.018 174.844C128.529 175.005 127.398 173.532 127.938 172.135L131.432 163.083C132.074 161.422 134.403 161.364 135.126 162.991L138.804 171.269C139.355 172.508 138.539 173.924 137.191 174.069Z" fill="black" stroke="black"/>
<path d="M156.65 178.351L149.193 176.418C147.662 176.021 147.176 174.089 148.336 173.015L155.793 166.11C157.073 164.924 159.152 165.833 159.152 167.578V176.415C159.152 177.724 157.916 178.68 156.65 178.351Z" fill="black" stroke="black"/>
<path d="M176.899 185.441L170.155 182.839C168.754 182.299 168.426 180.466 169.552 179.473L177.22 172.713C178.582 171.511 180.711 172.602 180.533 174.409L179.609 183.771C179.479 185.086 178.132 185.916 176.899 185.441Z" fill="black" stroke="black"/>
<path d="M200.834 186.7L192.461 188.374C191.171 188.631 189.987 187.594 190.074 186.281L190.76 175.825C190.877 174.046 193.087 173.297 194.261 174.639L201.947 183.422C202.959 184.58 202.342 186.399 200.834 186.7Z" fill="black" stroke="black"/>
<path d="M218.569 173.643L214.103 179.374C213.358 180.33 211.941 180.409 211.095 179.542L204.466 172.751C203.164 171.418 204.232 169.186 206.087 169.363L217.182 170.422C218.753 170.572 219.539 172.398 218.569 173.643Z" fill="black" stroke="black"/>
<path d="M89.0547 185.197L83.642 187.332C82.2275 187.89 80.7322 186.728 80.9239 185.22L82.1048 175.928C82.345 174.039 84.8407 173.523 85.8103 175.162L90.0421 182.318C90.6684 183.377 90.1991 184.745 89.0547 185.197Z" fill="black" stroke="black"/>
<ellipse cx="278.847" cy="62.2225" rx="84.9099" ry="21.4515" transform="rotate(-8.82389 278.847 62.2225)" fill="black"/>
<path d="M315.408 41.0109L232.918 53.0264C232.918 53.0264 233.352 24.5311 234.042 22.0468C235.025 18.5121 236.126 16.6163 238.348 13.6975C240.523 10.8414 241.969 9.23026 245.08 7.43757C252.694 3.04857 258.626 7.07764 267.352 6.03101C276.181 4.97205 280.455 1.16914 289.305 2.03829C291.669 2.27048 293.065 2.35732 295.264 3.25529C299.618 5.03293 303.352 10.0311 303.968 11.5765C304.855 13.8012 315.408 41.0109 315.408 41.0109Z" fill="black" stroke="black"/>
<path d="M315.152 88L343.152 89L339.152 94.5L315.152 88Z" fill="black"/>
<path d="M342.652 94L344.152 92L385.652 115.5C385.652 115.5 393.652 104.2 396.652 103C401.152 101.2 410.652 117 409.652 119C408.652 121 399.193 133.005 390.652 131.5C388.401 131.103 387.652 131 385.152 129.5C382.652 128 342.652 94 342.652 94Z" fill="black" stroke="black"/>
<path d="M418.652 108.5L420.652 105L421.152 101.5L419.652 88L421.652 83L431.652 72L420.152 81.5L417.652 86.5L419.152 101.5L417.152 107L409.652 108.945L418.652 108.5Z" fill="black"/>
<path d="M412.652 102L414.652 99.6311L415.652 97L414.652 90.9999L411.152 83.4999L413.152 93.5L413.152 96L412.652 98.5L410.652 101L404.652 104.22L408.652 103.5L412.652 102Z" fill="black"/>
</svg>
